# This file uses centimeters as units for non-parametric coordinates.

mtllib arrow.mtl
g default
v 0.849440 -0.636698 -0.269871
v 0.842766 -0.646269 -0.253185
v 0.832050 -0.658319 -0.240754
v 0.818343 -0.671669 -0.233794
v 0.802984 -0.685012 -0.232987
v 0.787479 -0.697042 -0.238411
v 0.773344 -0.706581 -0.249536
v 0.761963 -0.712696 -0.265273
v 0.754451 -0.714788 -0.284082
v 0.751542 -0.712652 -0.304120
v 0.753521 -0.706498 -0.323427
v 0.760195 -0.696927 -0.340113
v 0.770910 -0.684877 -0.352545
v 0.784618 -0.671527 -0.359505
v 0.799976 -0.658183 -0.360312
v 0.815482 -0.646154 -0.354887
v 0.829617 -0.636614 -0.343762
v 0.840998 -0.630499 -0.328025
v 0.848510 -0.628408 -0.309217
v 0.851419 -0.630543 -0.289178
v 0.936967 -0.829757 -0.333176
vt 0.737764 0.172746
vt 0.702254 0.103054
vt 0.646946 0.047746
vt 0.577254 0.012236
vt 0.500000 -0.000000
vt 0.422746 0.012236
vt 0.353054 0.047746
vt 0.297746 0.103054
vt 0.262236 0.172746
vt 0.250000 0.250000
vt 0.262236 0.327254
vt 0.297746 0.396946
vt 0.353054 0.452254
vt 0.422746 0.487764
vt 0.500000 0.500000
vt 0.577254 0.487764
vt 0.646946 0.452254
vt 0.702254 0.396946
vt 0.737764 0.327254
vt 0.750000 0.250000
vt 0.250000 0.500000
vt 0.275000 0.500000
vt 0.300000 0.500000
vt 0.325000 0.500000
vt 0.350000 0.500000
vt 0.375000 0.500000
vt 0.400000 0.500000
vt 0.425000 0.500000
vt 0.450000 0.500000
vt 0.475000 0.500000
vt 0.500000 0.500000
vt 0.525000 0.500000
vt 0.550000 0.500000
vt 0.575000 0.500000
vt 0.600000 0.500000
vt 0.625000 0.500000
vt 0.650000 0.500000
vt 0.675000 0.500000
vt 0.700000 0.500000
vt 0.725000 0.500000
vt 0.750000 0.500000
vt 0.500000 1.000000
vn -0.640792 0.748025 0.172754
vn -0.640792 0.748025 0.172754
vn -0.640792 0.748025 0.172754
vn -0.640792 0.748025 0.172754
vn -0.640792 0.748025 0.172754
vn -0.640792 0.748025 0.172754
vn -0.640792 0.748025 0.172754
vn -0.640792 0.748025 0.172754
vn -0.640792 0.748025 0.172754
vn -0.640792 0.748025 0.172754
vn -0.640792 0.748025 0.172754
vn -0.640792 0.748025 0.172754
vn -0.640792 0.748025 0.172754
vn -0.640792 0.748025 0.172754
vn -0.640792 0.748025 0.172754
vn -0.640792 0.748025 0.172754
vn -0.640792 0.748025 0.172754
vn -0.640792 0.748025 0.172754
vn -0.640792 0.748025 0.172754
vn -0.640792 0.748025 0.172754
vn 0.892845 0.292500 0.342449
vn 0.794829 0.151940 0.587504
vn 0.640792 -0.748026 -0.172753
vn 0.637461 -0.025033 0.770076
vn 0.436146 -0.221095 0.872292
vn 0.210590 -0.417054 0.884148
vn -0.017128 -0.593729 0.804482
vn -0.224717 -0.733826 0.641094
vn -0.391858 -0.823630 0.409977
vn -0.502189 -0.854352 0.133753
vn -0.544910 -0.822983 -0.160537
vn -0.515840 -0.732595 -0.444088
vn -0.417823 -0.592035 -0.689143
vn -0.260456 -0.415063 -0.871714
vn -0.059141 -0.219001 -0.973931
vn 0.166415 -0.023041 -0.985787
vn 0.394133 0.153634 -0.906121
vn 0.601723 0.293731 -0.742733
vn 0.768863 0.383535 -0.511615
vn 0.879194 0.414256 -0.235392
vn 0.921915 0.382888 0.058898
s off
g pCone1 group2
usemtl initialShadingGroup
f 1/1/1 20/20/2 19/19/3 18/18/4 17/17/5 16/16/6 15/15/7 14/14/8 13/13/9 12/12/10 11/11/11 10/10/12 9/9/13 8/8/14 7/7/15 6/6/16 5/5/17 4/4/18 3/3/19 2/2/20
s 1
f 1/21/21 2/22/22 21/42/23
f 2/22/22 3/23/24 21/42/23
f 3/23/24 4/24/25 21/42/23
f 4/24/25 5/25/26 21/42/23
f 5/25/26 6/26/27 21/42/23
f 6/26/27 7/27/28 21/42/23
f 7/27/28 8/28/29 21/42/23
f 8/28/29 9/29/30 21/42/23
f 9/29/30 10/30/31 21/42/23
f 10/30/31 11/31/32 21/42/23
f 11/31/32 12/32/33 21/42/23
f 12/32/33 13/33/34 21/42/23
f 13/33/34 14/34/35 21/42/23
f 14/34/35 15/35/36 21/42/23
f 15/35/36 16/36/37 21/42/23
f 16/36/37 17/37/38 21/42/23
f 17/37/38 18/38/39 21/42/23
f 18/38/39 19/39/40 21/42/23
f 19/39/40 20/40/41 21/42/23
f 20/40/41 1/41/21 21/42/23
g default
v 0.843882 -0.686064 -0.308041
v 0.841199 -0.686811 -0.314758
v 0.837135 -0.688995 -0.320378
v 0.832087 -0.692401 -0.324351
v 0.826549 -0.696698 -0.326289
v 0.821064 -0.701463 -0.326000
v 0.816169 -0.706231 -0.323515
v 0.812342 -0.710534 -0.319075
v 0.809958 -0.713953 -0.313116
v 0.809251 -0.716151 -0.306221
v 0.810290 -0.716913 -0.299064
v 0.812973 -0.716166 -0.292347
v 0.817038 -0.713982 -0.286727
v 0.822086 -0.710576 -0.282753
v 0.827623 -0.706279 -0.280816
v 0.833108 -0.701514 -0.281104
v 0.838004 -0.696746 -0.283590
v 0.841831 -0.692443 -0.288030
v 0.844214 -0.689025 -0.293989
v 0.844921 -0.686826 -0.300884
v -1.058062 1.534160 0.204713
v -1.060745 1.533413 0.197996
v -1.064810 1.531229 0.192376
v -1.069858 1.527823 0.188402
v -1.075396 1.523526 0.186465
v -1.080881 1.518761 0.186753
v -1.085776 1.513993 0.189239
v -1.089603 1.509690 0.193679
v -1.091986 1.506271 0.199638
v -1.092693 1.504073 0.206533
v -1.091655 1.503311 0.213690
v -1.088971 1.504058 0.220407
v -1.084907 1.506241 0.226027
v -1.079859 1.509648 0.230000
v -1.074321 1.513945 0.231938
v -1.068836 1.518710 0.231649
v -1.063941 1.523478 0.229164
v -1.060114 1.527781 0.224724
v -1.057730 1.531199 0.218765
v -1.057023 1.533397 0.211869
v 0.827086 -0.701489 -0.303552
v -1.074858 1.518735 0.209201
vt 0.648603 0.107966
vt 0.626409 0.064408
vt 0.591842 0.029841
vt 0.548284 0.007647
vt 0.500000 -0.000000
vt 0.451716 0.007647
vt 0.408159 0.029841
vt 0.373591 0.064409
vt 0.351397 0.107966
vt 0.343750 0.156250
vt 0.351397 0.204534
vt 0.373591 0.248091
vt 0.408159 0.282659
vt 0.451716 0.304853
vt 0.500000 0.312500
vt 0.548284 0.304853
vt 0.591841 0.282659
vt 0.626409 0.248091
vt 0.648603 0.204534
vt 0.656250 0.156250
vt 0.375000 0.312500
vt 0.387500 0.312500
vt 0.400000 0.312500
vt 0.412500 0.312500
vt 0.425000 0.312500
vt 0.437500 0.312500
vt 0.450000 0.312500
vt 0.462500 0.312500
vt 0.475000 0.312500
vt 0.487500 0.312500
vt 0.500000 0.312500
vt 0.512500 0.312500
vt 0.525000 0.312500
vt 0.537500 0.312500
vt 0.550000 0.312500
vt 0.562500 0.312500
vt 0.575000 0.312500
vt 0.587500 0.312500
vt 0.600000 0.312500
vt 0.612500 0.312500
vt 0.625000 0.312500
vt 0.375000 0.687500
vt 0.387500 0.687500
vt 0.400000 0.687500
vt 0.412500 0.687500
vt 0.425000 0.687500
vt 0.437500 0.687500
vt 0.450000 0.687500
vt 0.462500 0.687500
vt 0.475000 0.687500
vt 0.487500 0.687500
vt 0.500000 0.687500
vt 0.512500 0.687500
vt 0.525000 0.687500
vt 0.537500 0.687500
vt 0.550000 0.687500
vt 0.562500 0.687500
vt 0.575000 0.687500
vt 0.587500 0.687500
vt 0.600000 0.687500
vt 0.612500 0.687500
vt 0.625000 0.687500
vt 0.648603 0.795466
vt 0.626409 0.751908
vt 0.591842 0.717341
vt 0.548284 0.695147
vt 0.500000 0.687500
vt 0.451716 0.695147
vt 0.408159 0.717341
vt 0.373591 0.751909
vt 0.351397 0.795466
vt 0.343750 0.843750
vt 0.351397 0.892034
vt 0.373591 0.935591
vt 0.408159 0.970159
vt 0.451716 0.992353
vt 0.500000 1.000000
vt 0.548284 0.992353
vt 0.591841 0.970159
vt 0.626409 0.935591
vt 0.648603 0.892034
vt 0.656250 0.843750
vt 0.500000 0.156250
vt 0.500000 0.843750
vn 0.722668 0.663670 -0.193117
vn 0.607229 0.631526 -0.482129
vn 0.607229 0.631526 -0.482129
vn 0.722668 0.663670 -0.193117
vn 0.432350 0.537564 -0.723947
vn 0.432350 0.537564 -0.723947
vn 0.215150 0.390981 -0.894899
vn 0.215150 0.390981 -0.894899
vn -0.023110 0.206127 -0.978252
vn -0.023110 0.206127 -0.978252
vn -0.259108 0.001095 -0.965848
vn -0.259108 0.001095 -0.965848
vn -0.469743 -0.204043 -0.858899
vn -0.469743 -0.204043 -0.858899
vn -0.634396 -0.389209 -0.667875
vn -0.634396 -0.389209 -0.667875
vn -0.736950 -0.536276 -0.411475
vn -0.736950 -0.536276 -0.411475
vn -0.767366 -0.630849 -0.114798
vn -0.767366 -0.630849 -0.114798
vn -0.722667 -0.663670 0.193118
vn -0.722667 -0.663670 0.193118
vn -0.607229 -0.631526 0.482129
vn -0.607229 -0.631526 0.482129
vn -0.432350 -0.537564 0.723946
vn -0.432350 -0.537564 0.723946
vn -0.215150 -0.390981 0.894899
vn -0.215150 -0.390981 0.894899
vn 0.023110 -0.206127 0.978252
vn 0.023110 -0.206127 0.978252
vn 0.259108 -0.001095 0.965848
vn 0.259108 -0.001095 0.965848
vn 0.469743 0.204043 0.858899
vn 0.469743 0.204043 0.858899
vn 0.634396 0.389209 0.667875
vn 0.634396 0.389209 0.667875
vn 0.736950 0.536276 0.411476
vn 0.736950 0.536276 0.411476
vn 0.767366 0.630849 0.114799
vn 0.767366 0.630849 0.114799
vn 0.640792 -0.748025 -0.172754
vn 0.640792 -0.748025 -0.172754
vn 0.640792 -0.748025 -0.172754
vn 0.640792 -0.748025 -0.172754
vn 0.640792 -0.748025 -0.172754
vn 0.640792 -0.748025 -0.172754
vn 0.640792 -0.748025 -0.172754
vn 0.640792 -0.748025 -0.172754
vn 0.640792 -0.748025 -0.172754
vn 0.640792 -0.748025 -0.172754
vn 0.640792 -0.748025 -0.172754
vn 0.640792 -0.748025 -0.172754
vn 0.640792 -0.748025 -0.172754
vn 0.640792 -0.748025 -0.172754
vn 0.640792 -0.748025 -0.172754
vn 0.640792 -0.748025 -0.172754
vn 0.640792 -0.748025 -0.172754
vn 0.640792 -0.748025 -0.172754
vn 0.640792 -0.748025 -0.172754
vn 0.640792 -0.748025 -0.172754
vn 0.640792 -0.748025 -0.172754
vn -0.640792 0.748025 0.172754
vn -0.640792 0.748025 0.172754
vn -0.640792 0.748025 0.172754
vn -0.640792 0.748025 0.172754
vn -0.640792 0.748025 0.172754
vn -0.640792 0.748025 0.172754
vn -0.640792 0.748025 0.172754
vn -0.640792 0.748025 0.172754
vn -0.640792 0.748025 0.172754
vn -0.640792 0.748025 0.172754
vn -0.640792 0.748025 0.172754
vn -0.640792 0.748025 0.172754
vn -0.640792 0.748025 0.172754
vn -0.640792 0.748025 0.172754
vn -0.640792 0.748025 0.172754
vn -0.640792 0.748025 0.172754
vn -0.640792 0.748025 0.172754
vn -0.640792 0.748025 0.172754
vn -0.640792 0.748025 0.172754
vn -0.640792 0.748025 0.172754
vn -0.640792 0.748025 0.172754
s 1
g group2 pCylinder1
usemtl initialShadingGroup
f 22/63/42 23/64/43 43/85/44 42/84/45
f 23/64/43 24/65/46 44/86/47 43/85/44
f 24/65/46 25/66/48 45/87/49 44/86/47
f 25/66/48 26/67/50 46/88/51 45/87/49
f 26/67/50 27/68/52 47/89/53 46/88/51
f 27/68/52 28/69/54 48/90/55 47/89/53
f 28/69/54 29/70/56 49/91/57 48/90/55
f 29/70/56 30/71/58 50/92/59 49/91/57
f 30/71/58 31/72/60 51/93/61 50/92/59
f 31/72/60 32/73/62 52/94/63 51/93/61
f 32/73/62 33/74/64 53/95/65 52/94/63
f 33/74/64 34/75/66 54/96/67 53/95/65
f 34/75/66 35/76/68 55/97/69 54/96/67
f 35/76/68 36/77/70 56/98/71 55/97/69
f 36/77/70 37/78/72 57/99/73 56/98/71
f 37/78/72 38/79/74 58/100/75 57/99/73
f 38/79/74 39/80/76 59/101/77 58/100/75
f 39/80/76 40/81/78 60/102/79 59/101/77
f 40/81/78 41/82/80 61/103/81 60/102/79
f 41/82/80 22/83/42 42/104/45 61/103/81
s 2
f 23/44/82 22/43/83 62/125/84
f 24/45/85 23/44/82 62/125/84
f 25/46/86 24/45/85 62/125/84
f 26/47/87 25/46/86 62/125/84
f 27/48/88 26/47/87 62/125/84
f 28/49/89 27/48/88 62/125/84
f 29/50/90 28/49/89 62/125/84
f 30/51/91 29/50/90 62/125/84
f 31/52/92 30/51/91 62/125/84
f 32/53/93 31/52/92 62/125/84
f 33/54/94 32/53/93 62/125/84
f 34/55/95 33/54/94 62/125/84
f 35/56/96 34/55/95 62/125/84
f 36/57/97 35/56/96 62/125/84
f 37/58/98 36/57/97 62/125/84
f 38/59/99 37/58/98 62/125/84
f 39/60/100 38/59/99 62/125/84
f 40/61/101 39/60/100 62/125/84
f 41/62/102 40/61/101 62/125/84
f 22/43/83 41/62/102 62/125/84
s 3
f 42/123/103 43/122/104 63/126/105
f 43/122/104 44/121/106 63/126/105
f 44/121/106 45/120/107 63/126/105
f 45/120/107 46/119/108 63/126/105
f 46/119/108 47/118/109 63/126/105
f 47/118/109 48/117/110 63/126/105
f 48/117/110 49/116/111 63/126/105
f 49/116/111 50/115/112 63/126/105
f 50/115/112 51/114/113 63/126/105
f 51/114/113 52/113/114 63/126/105
f 52/113/114 53/112/115 63/126/105
f 53/112/115 54/111/116 63/126/105
f 54/111/116 55/110/117 63/126/105
f 55/110/117 56/109/118 63/126/105
f 56/109/118 57/108/119 63/126/105
f 57/108/119 58/107/120 63/126/105
f 58/107/120 59/106/121 63/126/105
f 59/106/121 60/105/122 63/126/105
f 60/105/122 61/124/123 63/126/105
f 61/124/123 42/123/103 63/126/105
g default
v -0.863112 1.087269 0.128884
v -0.678775 1.238812 0.156461
v -1.299398 1.550463 0.236790
v -1.074223 1.759811 0.275583
v -1.300103 1.556754 0.206934
v -1.074928 1.766102 0.245726
v -0.863817 1.093560 0.099028
v -0.679480 1.245103 0.126605
v -1.163433 1.617733 0.247753
v -1.163630 1.624441 0.217972
v -0.656095 1.032257 0.081204
v -0.655898 1.025549 0.110984
v -0.991146 1.211246 0.158032
v -0.991851 1.217537 0.128176
v -0.793319 1.192371 0.118183
v -0.775472 1.379017 0.157089
v -0.774767 1.372726 0.186946
v -0.793121 1.185663 0.147963
v -1.041611 1.266331 0.170831
v -1.042316 1.272622 0.140975
v -0.866163 1.277366 0.137813
v -0.845526 1.465274 0.176919
v -0.844821 1.458983 0.206776
v -0.865965 1.270657 0.167593
v -1.155457 1.391812 0.199961
v -1.156162 1.398103 0.170104
v -1.007412 1.442177 0.175877
v -0.940221 1.575627 0.202409
v -0.939515 1.569336 0.232265
v -1.007215 1.435468 0.205657
v -1.213036 1.464088 0.216550
v -1.213741 1.470379 0.186694
v -1.084534 1.532163 0.196660
v -0.994816 1.650357 0.219445
v -0.994110 1.644066 0.249301
v -1.084336 1.525454 0.226440
v -0.824722 1.067807 0.123876
v -0.941176 1.198112 0.154084
v -0.969854 1.228596 0.161185
v -1.081974 1.385568 0.196909
v -1.168411 1.437742 0.209945
v -1.259904 1.567713 0.239492
v -1.260498 1.574096 0.209653
v -1.169005 1.444125 0.180105
v -1.082568 1.391951 0.167070
v -0.970448 1.234979 0.131345
v -0.941770 1.204494 0.124245
v -0.825316 1.074190 0.094037
v -0.669248 1.214308 0.151073
v -0.777324 1.346661 0.181514
v -0.856342 1.391514 0.192832
v -0.914910 1.502702 0.217644
v -1.006682 1.627539 0.246116
v -1.082773 1.720941 0.267594
v -1.083407 1.727290 0.237749
v -1.007317 1.633888 0.216270
v -0.915544 1.509051 0.187798
v -0.856977 1.397863 0.162986
v -0.777959 1.353010 0.151668
v -0.669883 1.220657 0.121227
vt 0.375000 0.000000
vt 0.625000 0.000000
vt 0.375000 0.250000
vt 0.625000 0.250000
vt 0.375000 0.500000
vt 0.625000 0.500000
vt 0.375000 0.750000
vt 0.625000 0.750000
vt 0.375000 1.000000
vt 0.625000 1.000000
vt 0.875000 0.000000
vt 0.875000 0.250000
vt 0.125000 0.000000
vt 0.125000 0.250000
vt 0.506590 0.250000
vt 0.507145 0.500000
vt 0.507301 0.750000
vt 0.506746 0.000000
vt 0.506746 1.000000
vt 0.375000 0.064740
vt 0.250000 0.375000
vt 0.507260 0.685260
vt 0.625000 0.685260
vt 0.875000 0.064740
vt 0.625000 0.064740
vt 0.506706 0.064740
vt 0.375000 0.099106
vt 0.250000 0.375000
vt 0.507239 0.650894
vt 0.750000 0.375000
vt 0.625000 0.099106
vt 0.506684 0.099106
vt 0.375000 0.165745
vt 0.250000 0.375000
vt 0.507197 0.584255
vt 0.750000 0.375000
vt 0.625000 0.165745
vt 0.506643 0.165745
vt 0.375000 0.202129
vt 0.250000 0.375000
vt 0.507175 0.547871
vt 0.625000 0.547871
vt 0.875000 0.202129
vt 0.625000 0.202129
vt 0.506620 0.202129
vt 0.403965 0.000000
vt 0.403965 1.000000
vt 0.403956 0.064740
vt 0.403952 0.099106
vt 0.403943 0.165745
vt 0.403938 0.202129
vt 0.403931 0.250000
vt 0.404053 0.500000
vt 0.404060 0.547871
vt 0.404065 0.584255
vt 0.404074 0.650894
vt 0.404078 0.685260
vt 0.404087 0.750000
vt 0.608523 0.000000
vt 0.608523 1.000000
vt 0.608517 0.064740
vt 0.608514 0.099106
vt 0.608509 0.165745
vt 0.608505 0.202129
vt 0.608501 0.250000
vt 0.608578 0.500000
vt 0.608583 0.547871
vt 0.608586 0.584255
vt 0.608592 0.650894
vt 0.608595 0.685260
vt 0.608600 0.750000
vn 0.023110 -0.206127 0.978252
vn 0.023110 -0.206127 0.978252
vn 0.023110 -0.206127 0.978252
vn 0.023110 -0.206127 0.978252
vn -0.404097 0.892947 0.198371
vn -0.447920 0.872193 0.196589
vn -0.447935 0.872185 0.196588
vn -0.404097 0.892947 0.198371
vn -0.023110 0.206127 -0.978252
vn -0.023110 0.206127 -0.978252
vn -0.023110 0.206127 -0.978252
vn -0.023110 0.206127 -0.978252
vn -0.461861 -0.869603 -0.174570
vn -0.294268 -0.934714 -0.199289
vn -0.294301 -0.934705 -0.199285
vn -0.461861 -0.869603 -0.174570
vn 0.819316 0.564622 0.099616
vn 0.819316 0.564622 0.099616
vn 0.805350 0.583615 0.103948
vn 0.805350 0.583615 0.103948
vn -0.704853 -0.697289 -0.130274
vn -0.704853 -0.697289 -0.130274
vn -0.704853 -0.697289 -0.130274
vn -0.704853 -0.697289 -0.130274
vn -0.660240 0.731671 0.169531
vn -0.659781 0.732066 0.169612
vn -0.851402 0.509386 0.125067
vn -0.851433 0.509335 0.125057
vn -0.023110 0.206127 -0.978252
vn -0.023110 0.206127 -0.978252
vn -0.023110 0.206127 -0.978252
vn -0.023110 0.206127 -0.978252
vn 0.690366 -0.704509 -0.164506
vn 0.692733 -0.702288 -0.164051
vn 0.994308 0.106232 0.008100
vn 0.994310 0.106215 0.008097
vn 0.023110 -0.206127 0.978252
vn 0.023110 -0.206127 0.978252
vn 0.023110 -0.206127 0.978252
vn 0.023110 -0.206127 0.978252
vn -0.023110 0.206127 -0.978252
vn -0.023110 0.206127 -0.978252
vn 0.783765 0.611190 0.110268
vn 0.783765 0.611190 0.110268
vn 0.023110 -0.206127 0.978252
vn 0.023110 -0.206127 0.978252
vn -0.748952 -0.651736 -0.119634
vn -0.748952 -0.651736 -0.119634
vn -0.748952 -0.651736 -0.119634
vn -0.748952 -0.651736 -0.119634
vn -0.023110 0.206127 -0.978252
vn -0.023110 0.206127 -0.978252
vn -0.023110 0.206127 -0.978252
vn -0.023110 0.206127 -0.978252
vn -0.023110 0.206127 -0.978252
vn -0.023110 0.206127 -0.978252
vn 0.023110 -0.206127 0.978252
vn 0.023110 -0.206127 0.978252
vn 0.023110 -0.206127 0.978252
vn 0.023110 -0.206127 0.978252
vn 0.023110 -0.206127 0.978252
vn 0.023110 -0.206127 0.978252
vn -0.023110 0.206127 -0.978252
vn -0.023110 0.206127 -0.978252
vn 0.814176 0.571724 0.101234
vn 0.814176 0.571724 0.101234
vn 0.822906 0.559580 0.098468
vn 0.822906 0.559580 0.098468
vn 0.023110 -0.206127 0.978252
vn 0.023110 -0.206127 0.978252
vn -0.716170 -0.686151 -0.127660
vn -0.716170 -0.686151 -0.127660
vn -0.716170 -0.686151 -0.127660
vn -0.716170 -0.686151 -0.127660
vn -0.023110 0.206127 -0.978252
vn -0.023110 0.206127 -0.978252
vn -0.023110 0.206127 -0.978252
vn -0.023110 0.206127 -0.978252
vn -0.023110 0.206127 -0.978252
vn -0.023110 0.206127 -0.978252
vn 0.828539 0.551528 0.096639
vn 0.828539 0.551528 0.096639
vn 0.023110 -0.206127 0.978252
vn 0.023110 -0.206127 0.978252
vn 0.023110 -0.206127 0.978252
vn 0.023110 -0.206127 0.978252
vn 0.023110 -0.206127 0.978252
vn 0.023110 -0.206127 0.978252
vn 0.023110 -0.206127 0.978252
vn 0.023110 -0.206127 0.978252
vn 0.023110 -0.206127 0.978252
vn 0.023110 -0.206127 0.978252
vn 0.023110 -0.206127 0.978252
vn 0.023110 -0.206127 0.978252
vn -0.977463 0.201013 0.064497
vn -0.977463 0.201013 0.064497
vn -0.023110 0.206127 -0.978252
vn -0.023110 0.206127 -0.978252
vn -0.023110 0.206127 -0.978252
vn -0.023110 0.206127 -0.978252
vn -0.023110 0.206127 -0.978252
vn -0.023110 0.206127 -0.978252
vn 0.934040 0.353094 0.053795
vn 0.934040 0.353094 0.053795
vn -0.475802 -0.862423 -0.172743
vn -0.475802 -0.862423 -0.172743
vn -0.475802 -0.862423 -0.172743
vn -0.475802 -0.862423 -0.172743
vn -0.737061 -0.663727 -0.127308
vn -0.737061 -0.663727 -0.127308
vn -0.737061 -0.663727 -0.127308
vn -0.737061 -0.663727 -0.127308
vn 0.262596 0.945014 0.194917
vn 0.262595 0.945014 0.194917
vn 0.262595 0.945014 0.194917
vn 0.262595 0.945014 0.194917
vn 0.889121 0.451138 0.077066
vn 0.889121 0.451138 0.077066
vn 0.889121 0.451138 0.077066
vn 0.889121 0.451138 0.077066
vn 0.940226 0.336830 0.050211
vn 0.940226 0.336830 0.050211
vn 0.940226 0.336830 0.050211
vn 0.940226 0.336830 0.050211
vn -0.986125 0.156534 0.055274
vn -0.986125 0.156534 0.055274
vn -0.986125 0.156534 0.055274
vn -0.986125 0.156534 0.055274
vn -0.527860 -0.832631 -0.167598
vn -0.527860 -0.832631 -0.167598
vn -0.527860 -0.832631 -0.167598
vn -0.527860 -0.832631 -0.167598
vn -0.518343 -0.838750 -0.166792
vn -0.518343 -0.838750 -0.166792
vn -0.518343 -0.838750 -0.166792
vn -0.518343 -0.838750 -0.166792
vn 0.090615 0.974572 0.204935
vn 0.090615 0.974572 0.204935
vn 0.090615 0.974572 0.204935
vn 0.090615 0.974572 0.204935
s 1
g group2 pCube3
usemtl initialShadingGroup
f 64/127/124 100/172/125 101/174/126 76/146/127
s 2
f 66/129/128 105/178/129 106/179/130 68/131/131
s 3
f 77/147/132 110/183/133 111/184/134 70/133/135
s 4
f 70/133/136 111/184/137 100/173/138 64/135/139
s 5
f 65/128/140 71/137/141 79/150/142 80/151/143
s off
f 70/139/144 64/127/145 76/146/146 77/147/147
s 2
f 73/142/148 72/141/149 117/191/150 118/192/151
s 3
f 74/143/152 78/148/153 122/196/154 123/197/155
s 4
f 75/145/156 74/143/157 123/197/158 112/186/159
s 1
f 81/152/160 75/144/161 112/185/162 113/187/163
s 3
f 122/196/154 78/148/153 84/155/164 121/195/165
s 5
f 80/151/143 79/150/142 85/156/166 86/157/167
s 1
f 87/158/168 81/152/160 113/187/163 114/188/169
s off
f 83/154/170 82/153/171 88/159/172 89/160/173
s 3
f 89/160/174 108/181/175 109/182/176 83/154/177
f 121/195/165 84/155/164 90/161/178 120/194/179
s 1
f 93/164/180 87/158/168 114/188/169 115/189/181
f 82/153/182 102/175/183 103/176/184 88/159/185
s 3
f 120/194/179 90/161/178 96/167/186 119/193/187
s 7
f 92/163/188 91/162/189 97/169/190 98/170/191
s 1
f 99/171/192 93/164/180 115/189/181 116/190/193
s off
f 95/166/194 94/165/195 66/129/196 68/140/197
s 3
f 68/131/198 106/179/199 107/180/200 95/166/201
f 119/193/187 96/167/186 73/142/202 118/192/203
s 7
f 98/170/191 97/169/190 69/138/204 67/130/205
s 1
f 72/141/206 99/171/192 116/190/193 117/191/207
f 94/165/208 104/177/209 105/178/210 66/129/211
f 100/172/125 75/144/161 81/152/160 101/174/126
f 102/175/183 101/174/126 81/152/160 87/158/168
f 103/176/184 102/175/183 87/158/168 93/164/180
f 104/177/209 103/176/184 93/164/180 99/171/192
f 105/178/210 104/177/209 99/171/192 72/141/206
s 2
f 106/179/130 105/178/129 72/141/149 73/142/148
s 3
f 107/180/200 106/179/199 73/142/202 96/167/186
f 108/181/175 107/180/200 96/167/186 90/161/178
f 109/182/176 108/181/175 90/161/178 84/155/164
f 110/183/133 109/182/176 84/155/164 78/148/153
f 111/184/134 110/183/133 78/148/153 74/143/152
s 4
f 100/173/138 111/184/137 74/143/157 75/145/156
s 1
f 113/187/163 112/185/162 65/128/212 80/151/213
f 114/188/169 113/187/163 80/151/213 86/157/214
f 116/190/193 115/189/181 92/163/215 98/170/216
f 117/191/207 116/190/193 98/170/216 67/130/217
s 2
f 118/192/151 117/191/150 67/130/218 69/132/219
s 3
f 97/168/220 119/193/187 118/192/203 69/132/221
f 91/162/222 120/194/179 119/193/187 97/168/220
f 79/149/223 122/196/154 121/195/165 85/156/224
f 123/197/155 122/196/154 79/149/223 71/134/225
s 4
f 112/186/159 123/197/158 71/134/226 65/136/227
s off
f 83/154/228 109/182/229 102/175/230 82/153/231
f 101/174/232 102/175/233 109/182/234 110/183/235
f 110/183/236 77/147/237 76/146/238 101/174/239
f 115/189/240 114/188/241 121/195/242 120/194/243
f 91/162/244 92/163/245 115/189/246 120/194/247
f 114/188/248 86/157/249 85/156/250 121/195/251
f 103/176/252 104/177/253 107/180/254 108/181/255
f 94/165/256 95/166/257 107/180/258 104/177/259
f 108/181/260 89/160/261 88/159/262 103/176/263
